<svg preserveAspectRatio="none" width="100%" height="100%" overflow="visible" style="display: block;" viewBox="0 0 83.4227 82.3179" fill="none" xmlns="http://www.w3.org/2000/svg">
<g id="Group 636">
<g id="Group">
<path id="Vector" d="M42.1787 81.1849C64.2844 81.1849 82.2046 63.2647 82.2046 41.159C82.2046 19.0533 64.2844 1.13308 42.1787 1.13308C20.073 1.13308 2.15284 19.0533 2.15284 41.159C2.15284 63.2647 20.073 81.1849 42.1787 81.1849Z" fill="var(--fill-0, #6C849D)" fill-opacity="0.12" stroke="var(--stroke-0, #B1C1D2)" stroke-width="2.26615" stroke-miterlimit="10"/>
<path id="Vector_2" d="M82.1197 40.989C82.1197 52.8863 77.4457 63.5089 69.2026 70.8172H2.66273C1.81292 70.8172 1.13308 70.1374 1.13308 69.2876V14.0502C1.13308 13.2003 1.81292 12.5205 2.66273 12.5205H69.9674C77.4457 19.5739 82.1197 29.7716 82.1197 40.989Z" fill="var(--fill-0, #F1F3FA)" stroke="var(--stroke-0, #B1C1D2)" stroke-width="2.26615" stroke-miterlimit="10"/>
<path id="Vector_3" d="M69.1176 70.7323H68.9476C70.0524 69.7125 70.9022 68.6927 71.837 67.588C70.9022 68.7777 70.2224 69.7975 69.1176 70.7323Z" fill="var(--fill-0, #F1F3FA)"/>
</g>
<path id="Vector_4" d="M30.1115 46.7677H3.59753C3.17262 46.7677 2.8327 46.4278 2.8327 46.0029V26.8822C2.8327 26.4573 3.17262 26.1174 3.59753 26.1174H30.1115C30.5364 26.1174 30.8763 26.4573 30.8763 26.8822V45.9179C30.8763 46.3428 30.5364 46.7677 30.1115 46.7677Z" fill="var(--fill-0, white)"/>
<path id="Vector_5" d="M78.5505 24.5877H3.59753C3.17262 24.5877 2.8327 24.2478 2.8327 23.8229V14.815C2.8327 14.3901 3.17262 14.0501 3.59753 14.0501H71.5821C72.6018 15.1549 73.5366 16.3446 74.4714 17.5344C75.4062 18.8091 76.341 20.2537 77.1058 21.6134C77.6157 22.6332 78.1256 23.568 78.5505 24.5877Z" fill="var(--fill-0, white)"/>
<path id="Vector_6" d="M77.1058 21.6984H65.3785C65.1235 21.6984 64.9536 21.5285 64.9536 21.2735V18.0443C64.9536 17.7893 65.1235 17.6193 65.3785 17.6193H74.3864C75.4062 18.8941 76.256 20.2537 77.1058 21.6984Z" fill="var(--fill-0, #AAB2C5)"/>
<path id="Vector_7" d="M75.0663 19.9988H67.9279C67.673 19.9988 67.503 19.8288 67.503 19.5739C67.503 19.3189 67.673 19.149 67.9279 19.149H75.0663C75.3212 19.149 75.4912 19.3189 75.4912 19.5739C75.4912 19.8288 75.3212 19.9988 75.0663 19.9988Z" fill="var(--fill-0, white)"/>
<path id="Vector_8" d="M59.5148 46.7677H33.0008C32.5759 46.7677 32.236 46.4278 32.236 46.0029V26.8822C32.236 26.4573 32.5759 26.1174 33.0008 26.1174H59.5148C59.9397 26.1174 60.2796 26.4573 60.2796 26.8822V45.9179C60.3646 46.3428 60.0247 46.7677 59.5148 46.7677Z" fill="var(--fill-0, white)"/>
<path id="Vector_9" d="M81.6098 34.7854C81.0999 31.7261 80.335 28.8368 79.2303 26.1174H62.4891C62.0642 26.1174 61.7243 26.4573 61.7243 26.9672V46.0029C61.7243 46.4278 62.0642 46.7677 62.4891 46.7677H81.6947C81.9497 44.8981 82.1196 42.9436 82.1196 41.074C82.1196 39.3744 82.0347 37.6748 81.7797 35.9752L81.6098 34.7854Z" fill="var(--fill-0, white)"/>
<path id="Vector_10" d="M30.1115 68.8627H3.59753C3.17262 68.8627 2.8327 68.5227 2.8327 68.0978V49.0622C2.8327 48.6373 3.17262 48.2973 3.59753 48.2973H30.1115C30.5364 48.2973 30.8763 48.6373 30.8763 49.0622V68.0978C30.8763 68.5227 30.5364 68.8627 30.1115 68.8627Z" fill="var(--fill-0, white)"/>
<path id="Vector_11" d="M59.5148 68.8627H33.0008C32.5759 68.8627 32.236 68.5227 32.236 68.0978V49.0622C32.236 48.6373 32.5759 48.2973 33.0008 48.2973H59.5148C59.9397 48.2973 60.2796 48.6373 60.2796 49.0622V68.0978C60.3646 68.5227 60.0247 68.8627 59.5148 68.8627Z" fill="var(--fill-0, white)"/>
<path id="Vector_12" d="M81.4398 48.2973C81.2698 49.3171 81.0149 50.2519 80.7599 51.1867C80.675 51.5266 80.59 51.7816 80.505 52.1215C80.2501 53.0563 79.9101 53.9911 79.5702 54.9258C79.3153 55.6057 78.9754 56.3705 78.7204 57.0504C78.4655 57.5602 78.2105 58.0701 77.9556 58.58C77.8706 58.8349 77.7006 59.0899 77.5307 59.3448C77.0208 60.2796 76.5109 61.2144 75.916 62.1492C75.7461 62.4041 75.5761 62.7441 75.3212 62.999C74.7263 63.8488 74.1315 64.6986 73.5366 65.5484C73.2816 65.8883 73.0267 66.1433 72.7718 66.4832C72.0919 67.333 71.3271 68.1828 70.5623 68.9477H62.3191C61.8942 68.9477 61.5543 68.6077 61.5543 68.1828V49.0622C61.5543 48.6373 61.8942 48.2973 62.3191 48.2973H81.4398Z" fill="var(--fill-0, white)"/>
<g id="Group_2">
<path id="Vector_13" d="M20.2538 59.6C20.2538 59.6849 20.2538 59.7699 20.1688 59.8549C20.0838 60.0249 20.0838 60.1948 20.0838 60.3648C19.9988 60.4498 19.9988 60.5347 19.9988 60.6197C19.9138 60.7897 19.9138 60.9596 19.8289 61.0446V61.1296C19.7439 61.2146 19.7439 61.2996 19.7439 61.2996C19.6589 61.3845 19.6589 61.4695 19.5739 61.4695L21.1036 62.8292C21.1886 62.7442 21.1886 62.6593 21.2735 62.5743C21.4435 62.3193 21.6135 62.0644 21.6984 61.8094C21.7834 61.7245 21.7834 61.6395 21.7834 61.5545C21.8684 61.2996 21.9534 61.0446 22.1233 60.7897C22.1233 60.7047 22.2083 60.6197 22.2083 60.6197C22.2933 60.4498 22.2933 60.2798 22.2933 60.1948C22.2933 60.1098 22.3783 60.0249 22.3783 60.0249C22.3783 59.9399 22.3783 59.8549 22.4633 59.8549V59.7699C22.4633 59.6849 22.4633 59.6 22.4633 59.6H20.2538ZM15.9198 63.4241C13.5403 63.4241 11.5008 61.4695 11.5008 59.0901C11.5008 56.7956 13.2004 55.011 15.3249 54.756V52.7165C12.0956 52.9715 9.46122 55.7758 9.46122 59.175C9.46122 62.7442 12.3506 65.6336 15.9198 65.6336C17.7043 65.6336 19.319 64.9537 20.4237 63.764L18.8941 62.3193C18.1293 63.0842 17.0245 63.4241 15.9198 63.4241ZM16.4296 52.6315V54.6711C18.4692 54.926 19.9988 56.4557 20.2538 58.4102H22.3783C22.1233 55.3509 19.5739 52.8865 16.4296 52.6315Z" fill="var(--fill-0, #F1F3FA)"/>
<path id="Vector_14" d="M22.3783 58.4952H20.3387C20.0838 56.4556 18.4692 54.926 16.5146 54.756V52.7165C19.5739 52.8865 22.1233 55.3509 22.3783 58.4952Z" fill="var(--fill-0, #AAB2C5)"/>
<path id="Vector_15" d="M22.3783 59.6C22.3783 59.6849 22.3783 59.7699 22.3783 59.7699V59.8549C22.3783 59.9399 22.3783 60.0249 22.2933 60.0249C22.2933 60.1098 22.2933 60.1948 22.2083 60.1948C22.1233 60.3648 22.1233 60.5347 22.1233 60.6197C22.1233 60.7047 22.0383 60.7897 22.0383 60.7897C21.9534 61.0446 21.8684 61.2996 21.6984 61.5545C21.6134 61.6395 21.6134 61.7245 21.6134 61.8095C21.5285 62.0644 21.3585 62.3193 21.1885 62.5743C21.1036 62.6593 21.1036 62.7442 21.0186 62.8292L19.5739 61.4695C19.6589 61.3845 19.6589 61.2996 19.7439 61.2996C19.8288 61.2146 19.8288 61.1296 19.8288 61.1296V61.0446C19.9138 60.8747 19.9988 60.7047 19.9988 60.6197C20.0838 60.5347 20.0838 60.4498 20.0838 60.3648C20.1688 60.1948 20.1688 60.0249 20.1688 59.8549C20.1688 59.7699 20.2538 59.6849 20.2538 59.6H22.3783V59.6Z" fill="var(--fill-0, #B1C1D2)"/>
</g>
<path id="Vector_16" d="M81.7797 35.8902C81.7797 35.5502 81.6947 35.2103 81.6098 34.7854L77.1058 39.2894C76.9358 39.2044 76.6809 39.1194 76.5109 39.1194C76.3409 39.1194 76.086 39.2044 75.916 39.2894L71.837 35.2103C71.922 35.0404 71.922 34.9554 71.922 34.7004C71.922 33.9356 71.3271 33.4257 70.6472 33.4257C69.9674 33.4257 69.3725 34.0206 69.3725 34.7004C69.3725 34.8704 69.3725 35.0404 69.4575 35.2103L65.9733 38.5246C65.8034 38.4396 65.6334 38.4396 65.4634 38.4396C64.6986 38.4396 64.1887 39.0345 64.1887 39.7143C64.1887 40.3941 64.7836 40.989 65.4634 40.989C66.1433 40.989 66.7381 40.3941 66.7381 39.7143C66.7381 39.5443 66.6532 39.3744 66.5682 39.2044L69.8824 35.8052C70.1374 35.8902 70.2223 35.9751 70.3923 35.9751C70.5623 35.9751 70.8172 35.8902 70.9022 35.8052L74.9813 39.8843C74.8963 40.0542 74.8963 40.1392 74.8963 40.3092C74.8963 41.074 75.4911 41.5839 76.171 41.5839C76.9358 41.5839 77.4457 40.989 77.4457 40.3092C77.4457 40.1392 77.4457 40.0542 77.3607 39.8843L81.7797 35.8902ZM65.5484 40.4791C65.2085 40.4791 64.9535 40.2242 64.9535 39.8843C64.9535 39.5443 65.2085 39.2894 65.5484 39.2894C65.8883 39.2894 66.1433 39.5443 66.1433 39.8843C66.1433 40.1392 65.8883 40.4791 65.5484 40.4791ZM70.6472 35.2953C70.3073 35.2953 70.0524 35.0404 70.0524 34.7004C70.0524 34.3605 70.3073 34.1056 70.6472 34.1056C70.9872 34.1056 71.2421 34.3605 71.2421 34.7004C71.2421 35.0404 71.0722 35.2953 70.6472 35.2953ZM76.5959 41.074C76.256 41.074 76.001 40.819 76.001 40.4791C76.001 40.1392 76.256 39.8843 76.5959 39.8843C76.9358 39.8843 77.1908 40.1392 77.1908 40.4791C77.2757 40.819 77.0208 41.074 76.5959 41.074Z" fill="var(--fill-0, #B1C1D2)"/>
<g id="Group_3">
<path id="Vector_17" d="M37.3348 39.9692H36.1451C36.0601 39.9692 35.8902 39.7993 35.8902 39.7143V33.2558C35.8902 33.0858 35.9751 33.0008 36.1451 33.0008H37.3348C37.4198 33.0008 37.5898 33.1708 37.5898 33.2558V39.7143C37.5048 39.7993 37.4198 39.9692 37.3348 39.9692Z" fill="var(--fill-0, #AAB2C5)"/>
<path id="Vector_18" d="M38.0146 39.9692H36.655C36.57 39.9692 36.485 39.8842 36.485 39.7993V36.8249C36.485 36.655 36.57 36.655 36.655 36.655H38.0146C38.0996 36.655 38.1846 36.74 38.1846 36.8249V39.7993C38.1846 39.8842 38.0996 39.9692 38.0146 39.9692Z" fill="var(--fill-0, #B1C1D2)"/>
<path id="Vector_19" d="M40.3941 39.9692H39.2044C39.1194 39.9692 38.9495 39.7993 38.9495 39.7143V35.2103C38.9495 35.0403 39.0344 34.9554 39.2044 34.9554H40.3941C40.4791 34.9554 40.6491 35.1253 40.6491 35.2103V39.7143C40.6491 39.7993 40.4791 39.9692 40.3941 39.9692Z" fill="var(--fill-0, #AAB2C5)"/>
<path id="Vector_20" d="M43.4534 39.9692H42.2637C42.1787 39.9692 42.0088 39.7993 42.0088 39.7143V36.825C42.0088 36.655 42.0937 36.57 42.2637 36.57H43.4534C43.5384 36.57 43.7084 36.74 43.7084 36.825V39.6293C43.7084 39.7993 43.5384 39.9692 43.4534 39.9692Z" fill="var(--fill-0, #AAB2C5)"/>
<path id="Vector_21" d="M46.5127 39.9692H45.323C45.238 39.9692 45.0681 39.7993 45.0681 39.7143V34.3605C45.0681 34.1905 45.153 34.1056 45.323 34.1056H46.5127C46.5977 34.1056 46.7677 34.2755 46.7677 34.3605V39.7143C46.7677 39.7993 46.6827 39.9692 46.5127 39.9692Z" fill="var(--fill-0, #AAB2C5)"/>
<path id="Vector_22" d="M49.657 39.9692H48.4673C48.3823 39.9692 48.2123 39.7993 48.2123 39.7143V36.485C48.2123 36.3151 48.2973 36.2301 48.4673 36.2301H49.657C49.742 36.2301 49.912 36.4 49.912 36.485V39.7143C49.912 39.7993 49.827 39.9692 49.657 39.9692Z" fill="var(--fill-0, #AAB2C5)"/>
<path id="Vector_23" d="M52.7163 39.9692H51.5266C51.4416 39.9692 51.2716 39.7993 51.2716 39.7143V35.2103C51.2716 35.0403 51.3566 34.9554 51.5266 34.9554H52.7163C52.8013 34.9554 52.9713 35.1253 52.9713 35.2103V39.7143C52.9713 39.7993 52.8863 39.9692 52.7163 39.9692Z" fill="var(--fill-0, #AAB2C5)"/>
<path id="Vector_24" d="M55.8606 39.9692H54.6708C54.5859 39.9692 54.4159 39.7993 54.4159 39.7143V36.825C54.4159 36.655 54.5009 36.57 54.6708 36.57H55.8606C55.9455 36.57 56.1155 36.74 56.1155 36.825V39.6293C56.0305 39.7993 55.9455 39.9692 55.8606 39.9692Z" fill="var(--fill-0, #AAB2C5)"/>
<path id="Vector_25" d="M41.074 39.9692H39.6293C39.5443 39.9692 39.5443 39.8843 39.5443 39.7993V38.0147C39.5443 37.9297 39.6293 37.8447 39.6293 37.8447H41.074C41.1589 37.8447 41.1589 37.9297 41.1589 38.0147V39.7993C41.2439 39.8843 41.1589 39.9692 41.074 39.9692Z" fill="var(--fill-0, #B1C1D2)"/>
<path id="Vector_26" d="M44.2182 39.9692H42.7736C42.6886 39.9692 42.6886 39.8842 42.6886 39.7993V38.9495C42.6886 38.8645 42.7736 38.7795 42.7736 38.7795H44.2182C44.3032 38.7795 44.3032 38.8645 44.3032 38.9495V39.7993C44.3032 39.8842 44.3032 39.9692 44.2182 39.9692Z" fill="var(--fill-0, #B1C1D2)"/>
<path id="Vector_27" d="M47.2776 39.9692H45.8329C45.7479 39.9692 45.7479 39.8842 45.7479 39.7993V38.5246C45.7479 38.4396 45.8329 38.3546 45.8329 38.3546H47.2776C47.3625 38.3546 47.3626 38.4396 47.3626 38.5246V39.7993C47.4475 39.8842 47.4475 39.9692 47.2776 39.9692Z" fill="var(--fill-0, #B1C1D2)"/>
<path id="Vector_28" d="M50.4218 39.9692H49.0621C48.9772 39.9692 48.9772 39.8842 48.9772 39.7993V37.5048C48.9772 37.4198 49.0621 37.3348 49.0621 37.3348H50.4218C50.5068 37.3348 50.5068 37.4198 50.5068 37.5048V39.7993C50.5918 39.8842 50.5068 39.9692 50.4218 39.9692Z" fill="var(--fill-0, #B1C1D2)"/>
<path id="Vector_29" d="M53.6511 39.9692H52.1215C52.0365 39.9692 52.0365 39.9692 52.0365 39.8842V39.4593C52.0365 39.3744 52.0365 39.3744 52.1215 39.3744H53.6511C53.7361 39.3744 53.7361 39.3744 53.7361 39.4593V39.7993C53.7361 39.8842 53.7361 39.9692 53.6511 39.9692Z" fill="var(--fill-0, #B1C1D2)"/>
<path id="Vector_30" d="M56.7104 39.9692H55.1808C55.1808 39.9692 55.0958 39.9692 55.0958 39.8842V39.7143C55.0958 39.7143 55.0958 39.6293 55.1808 39.6293H56.7104C56.7104 39.6293 56.7954 39.6293 56.7954 39.7143L56.7104 39.9692C56.7104 39.9692 56.7954 39.8843 56.7104 39.9692Z" fill="var(--fill-0, #B1C1D2)"/>
</g>
<path id="Vector_31" d="M58.0701 51.0167H34.5305V54.161H58.0701V51.0167Z" fill="var(--fill-0, #F1F3FA)"/>
<path id="Vector_32" d="M48.2124 52.0365H41.7538V52.9713H48.2124V52.0365Z" fill="var(--fill-0, #B1C1D2)"/>
<path id="Vector_33" d="M56.3705 52.0365H54.076V52.9713H56.3705V52.0365Z" fill="var(--fill-0, #B1C1D2)"/>
<path id="Vector_34" d="M58.0701 56.9654H34.5305V60.1097H58.0701V56.9654Z" fill="var(--fill-0, #F1F3FA)"/>
<path id="Vector_35" d="M46.2578 58.0701H41.7538V59.0049H46.2578V58.0701Z" fill="var(--fill-0, #B1C1D2)"/>
<path id="Vector_36" d="M56.3705 58.0701H52.3764V59.0049H56.3705V58.0701Z" fill="var(--fill-0, #B1C1D2)"/>
<path id="Vector_37" d="M58.0701 62.999H34.5305V66.1433H58.0701V62.999Z" fill="var(--fill-0, #F1F3FA)"/>
<path id="Vector_38" d="M49.2322 64.1039H41.7539V65.0387H49.2322V64.1039V64.1039Z" fill="var(--fill-0, #B1C1D2)"/>
<path id="Vector_39" d="M56.3705 64.1039H55.0958V65.0387H56.3705V64.1039Z" fill="var(--fill-0, #B1C1D2)"/>
<path id="Vector_40" d="M9.12123 18.2144H5.55204C5.2971 18.2144 5.12714 17.9594 5.12714 17.7895V17.3646C5.12714 17.1096 5.38208 16.9397 5.55204 16.9397H9.12123C9.37617 16.9397 9.54613 17.1946 9.54613 17.3646V17.7895C9.54613 17.9594 9.37617 18.2144 9.12123 18.2144Z" fill="var(--fill-0, #B1C1D2)"/>
<path id="Vector_41" d="M33.6807 18.2144H12.6055C12.3505 18.2144 12.1806 17.9594 12.1806 17.7895V17.3646C12.1806 17.1096 12.4355 16.9397 12.6055 16.9397H33.6807C33.9356 16.9397 34.1056 17.1946 34.1056 17.3646V17.7895C34.1056 17.9594 33.9356 18.2144 33.6807 18.2144Z" fill="var(--fill-0, #F1F3FA)"/>
<path id="Vector_42" d="M9.12127 21.6984H5.55208C5.29714 21.6984 5.12718 21.4435 5.12718 21.2735V20.8486C5.12718 20.5937 5.38212 20.4237 5.55208 20.4237H9.12127C9.37621 20.4237 9.54617 20.6786 9.54617 20.8486V21.2735C9.54617 21.5285 9.37621 21.6984 9.12127 21.6984Z" fill="var(--fill-0, #B1C1D2)"/>
<path id="Vector_43" d="M23.9079 21.2735C23.9079 21.5285 23.6529 21.6984 23.483 21.6984H12.6055C12.3505 21.6984 12.1806 21.4435 12.1806 21.2735V20.8486C12.1806 20.5937 12.4355 20.4237 12.6055 20.4237H23.483C23.7379 20.4237 23.9079 20.6786 23.9079 20.8486V21.2735Z" fill="var(--fill-0, #F1F3FA)"/>
<path id="Vector_44" d="M27.902 44.2185H5.12714V30.1117C6.31687 30.1966 7.50659 30.2816 8.61134 30.6216C9.12123 30.7915 9.46115 30.9615 9.80107 31.3014C9.97103 31.4714 9.97103 31.5563 9.97103 31.6413C10.141 32.0662 10.4809 32.3212 11.0758 32.4061L11.5857 32.4911C12.6054 32.5761 13.3703 33.171 13.4552 33.8508L13.6252 35.0405C14.73 35.2955 14.8149 35.2955 15.8347 35.5504C16.0047 35.6354 16.0047 35.5504 16.0896 35.4655C16.1746 35.3805 16.2596 35.3805 16.3446 35.3805C16.5145 35.3805 16.5145 35.3805 16.6845 35.2955C16.8545 35.2105 17.0244 35.2105 17.1094 35.3805C17.5343 35.9753 18.3841 36.3153 18.894 36.8251C19.4889 37.42 20.5086 37.335 21.1885 37.335C21.3584 37.335 21.6134 37.42 21.7833 37.505C22.6332 38.0999 23.9928 40.0544 25.0976 40.0544C25.5225 40.0544 25.8624 40.2244 26.1174 40.3943C27.0521 41.669 27.647 42.8588 27.902 44.2185Z" fill="var(--fill-0, #F1F3FA)"/>
<path id="Vector_45" d="M27.3071 44.3883C27.0522 43.1135 26.4573 42.0938 25.5225 40.989C25.4376 40.904 25.1826 40.8191 24.9277 40.8191C23.9079 40.8191 23.0581 39.8843 22.2083 39.0345C21.8684 38.6945 21.5284 38.3546 21.2735 38.1847C21.1885 38.0997 21.0186 38.0997 21.0186 38.0997C20.8486 38.0997 20.7636 38.0997 20.5937 38.0997C19.9138 38.0997 18.979 38.0147 18.2992 37.4198C18.1292 37.1649 17.8743 36.9949 17.5344 36.825C17.1944 36.57 16.8545 36.4001 16.5996 36.0601C16.5146 36.0601 16.3446 36.0601 16.2596 36.0601C16.1747 36.1451 15.8347 36.3151 15.4098 36.1451L14.9 35.9752C14.3901 35.8902 14.1351 35.8052 13.2853 35.6352H13.0304L12.8604 34.0206C12.8604 33.5957 12.2656 33.2558 11.5857 33.1708L11.0758 33.0858C10.311 33.0008 9.63115 32.5759 9.46119 31.8961V31.8111C9.20625 31.5562 8.95131 31.3862 8.61138 31.3012C7.42165 30.8763 6.23192 30.7913 5.12718 30.7913L5.21216 29.5166C6.40189 29.6016 7.6766 29.6866 8.86632 30.1115C9.46119 30.2815 9.97107 30.6214 10.311 31.0463C10.396 31.1313 10.5659 31.3862 10.6509 31.7261C10.7359 31.8961 10.9059 31.9811 11.1608 31.9811L11.6707 32.0661C13.0304 32.151 13.9652 33.0008 14.1351 34.0206L14.2201 34.7005C14.73 34.7854 14.9849 34.8704 15.4098 34.9554L15.9197 35.0404C16.0897 34.9554 16.2596 34.8704 16.4296 34.8704C16.5146 34.8704 16.5146 34.8704 16.5996 34.8704C17.0245 34.7005 17.5344 34.8704 17.7893 35.2103C17.9593 35.3803 18.2992 35.6352 18.5541 35.8052C18.894 36.0601 19.234 36.2301 19.4889 36.57C19.7439 36.825 20.3387 36.825 20.9336 36.91C21.1035 36.91 21.1885 36.91 21.3585 36.91C21.6984 36.91 21.9533 37.0799 22.2083 37.1649L22.2933 37.2499C22.6332 37.5048 23.0581 37.8447 23.398 38.2696C23.9079 38.8645 24.7577 39.6293 25.1826 39.6293C25.6925 39.6293 26.2024 39.7993 26.6273 40.1392C27.817 41.4139 28.4969 42.6886 28.7518 44.2183L27.3071 44.3883Z" fill="var(--fill-0, #B1C1D2)"/>
<path id="Vector_46" d="M26.9672 35.6354H16.9394C16.5145 35.6354 16.1746 35.2955 16.1746 34.8706V31.3014C16.1746 30.8765 16.5145 30.5366 16.9394 30.5366H26.9672C27.3921 30.5366 27.732 30.8765 27.732 31.3014V34.8706C27.732 35.2955 27.3921 35.6354 26.9672 35.6354Z" fill="var(--fill-0, #AAB2C5)"/>
<path id="Vector_47" d="M25.6925 31.981H18.2992C18.1292 31.981 18.0442 32.151 18.0442 32.236C18.0442 32.4059 18.2142 32.4909 18.2992 32.4909H25.6925C25.8624 32.4909 25.9474 32.321 25.9474 32.236C25.9474 32.151 25.7775 31.981 25.6925 31.981Z" fill="var(--fill-0, white)"/>
<path id="Vector_48" d="M22.2083 33.6807H18.2142C18.0442 33.6807 17.9592 33.8506 17.9592 33.9356C17.9592 34.0206 18.1292 34.1905 18.2142 34.1905H22.2083C22.3782 34.1905 22.4632 34.0206 22.4632 33.9356C22.4632 33.8506 22.2932 33.6807 22.2083 33.6807Z" fill="var(--fill-0, white)"/>
<path id="Vector_49" d="M71.582 58.495H64.8686V55.6907H71.582V58.495ZM64.9535 59.3449H71.667V62.1492H64.9535V59.3449ZM65.4634 52.1215H71.667V55.0108H64.9535V52.7164C64.9535 52.2915 65.2085 52.1215 65.4634 52.1215ZM64.9535 64.9536V62.914H71.667V65.4635H65.4634C65.2085 65.5484 64.9535 65.2935 64.9535 64.9536ZM80.505 52.1215C80.59 51.7816 80.675 51.5266 80.7599 51.1867H65.4634C64.6986 51.1867 64.1887 51.8666 64.1887 52.6314V64.9536C64.1887 65.7184 64.7836 66.3983 65.4634 66.3983H72.9417C73.1967 66.0583 73.4516 65.8034 73.7066 65.4635H72.5168V62.914H75.4911C75.6611 62.6591 75.8311 62.3192 76.086 62.0642H72.5168V59.2599H77.6157C77.7856 59.0049 77.8706 58.75 78.0406 58.495H72.5168V55.6907H78.8054V56.8804C79.1453 56.2006 79.4003 55.4357 79.6552 54.7559H79.5702V52.1215H80.505ZM78.7204 54.9259H72.5168V52.1215H78.8054V54.9259H78.7204Z" fill="var(--fill-0, #F1F3FA)"/>
<path id="Vector_50" d="M67.8429 10.396C76.6809 17.7043 82.2896 28.7518 82.2896 41.159C82.2896 53.7361 76.5109 64.9536 67.418 72.2619" stroke="var(--stroke-0, #B1C1D2)" stroke-width="2.26615" stroke-miterlimit="10"/>
</g>
</svg>
