<svg preserveAspectRatio="none" width="100%" height="100%" overflow="visible" style="display: block;" viewBox="0 0 12.5993 12.5993" fill="none" xmlns="http://www.w3.org/2000/svg">
<path id="Vector" d="M6.29924 0.934001C7.41156 0.934001 8.18769 1.83737 8.18791 2.8217V4.41154H9.77677C10.7611 4.41154 11.6652 5.18699 11.6654 6.29924C11.6654 7.41171 10.7613 8.18791 9.77677 8.18791H8.18791V9.77677C8.18791 10.8892 7.28373 11.6654 6.29924 11.6654C5.18699 11.6652 4.41154 10.7611 4.41154 9.77677V8.18791H2.8217C2.31763 8.18781 1.83369 8.00747 1.47404 7.64787C1.11429 7.28812 0.934001 6.80348 0.934001 6.29924C0.934236 5.18715 1.8375 4.41175 2.8217 4.41154H4.41154V2.8217C4.41176 1.70961 5.31503 0.934229 6.29924 0.934001Z" fill="var(--fill-0, white)" stroke="var(--stroke-0, #768EA7)" stroke-width="1.86857"/>
</svg>
